<?xml version="1.0" encoding="utf-8"?>
<!-- Generator: Adobe Illustrator 21.0.2, SVG Export Plug-In . SVG Version: 6.00 Build 0)  -->
<svg version="1.1" id="Layer_1" xmlns="http://www.w3.org/2000/svg" xmlns:xlink="http://www.w3.org/1999/xlink" x="0px" y="0px" width="340" height="226" 
	 viewBox="0 0 340.2 226.8" style="enable-background:new 0 0 340.2 226.8;" xml:space="preserve">
<style type="text/css">
	.st0{fill:#FFFFFF;}
</style>
<g>
	<rect x="98.5" y="29.5" class="st0" width="47" height="35"/>
	<path d="M146,65H98V29h48V65z M99,64h46V30H99V64z"/>
</g>
<g>
	<ellipse class="st0" cx="162" cy="47" rx="9.5" ry="17.5"/>
	<path d="M162,65c-5.5,0-10-8.1-10-18s4.5-18,10-18s10,8.1,10,18S167.5,65,162,65z M162,30c-5,0-9,7.6-9,17s4,17,9,17s9-7.6,9-17
		S167,30,162,30z"/>
</g>
<g>
	<path d="M178.2,39.5h1.4v12.1h4.5V53h-5.9V39.5z"/>
	<path d="M192.3,48c0,3.6-2,5.2-3.8,5.2c-2.1,0-3.7-1.9-3.7-5c0-3.3,1.7-5.2,3.8-5.2C190.8,43.1,192.3,45.1,192.3,48z M186.2,48.1
		c0,2.1,1,3.7,2.3,3.7c1.3,0,2.3-1.6,2.3-3.8c0-1.6-0.6-3.7-2.3-3.7C186.9,44.4,186.2,46.3,186.2,48.1z"/>
	<path d="M194,46.3c0-1.1,0-2.1-0.1-3h1.2l0,1.9h0.1c0.3-1.3,1.2-2.1,2.1-2.1c0.2,0,0.3,0,0.4,0.1v1.7c-0.1,0-0.3-0.1-0.5-0.1
		c-1,0-1.7,0.9-1.9,2.3c0,0.2-0.1,0.5-0.1,0.8V53H194V46.3z"/>
	<path d="M199.8,48.5c0,2.4,1.2,3.4,2.6,3.4c1,0,1.6-0.2,2.1-0.5l0.2,1.3c-0.5,0.3-1.3,0.6-2.5,0.6c-2.3,0-3.8-2-3.8-4.9
		s1.4-5.2,3.6-5.2c2.5,0,3.2,2.8,3.2,4.6c0,0.4,0,0.6,0,0.8H199.8z M203.9,47.2c0-1.1-0.4-2.9-1.9-2.9c-1.4,0-2,1.6-2.1,2.9H203.9z"
		/>
	<path d="M206.9,45.9c0-1,0-1.8-0.1-2.6h1.2l0.1,1.6h0c0.4-0.9,1.1-1.8,2.4-1.8c1,0,1.8,0.8,2.2,1.9h0c0.2-0.5,0.5-1,0.9-1.3
		c0.5-0.4,1-0.7,1.7-0.7c1,0,2.5,0.8,2.5,4.2V53h-1.4v-5.5c0-1.9-0.5-3-1.7-3c-0.8,0-1.4,0.7-1.6,1.6c-0.1,0.2-0.1,0.6-0.1,0.9v6
		h-1.4v-5.8c0-1.5-0.5-2.7-1.6-2.7c-0.9,0-1.5,0.9-1.7,1.8c-0.1,0.3-0.1,0.6-0.1,0.9V53h-1.4V45.9z"/>
	<path d="M225,40.5c0,0.6-0.3,1.1-0.9,1.1c-0.5,0-0.8-0.5-0.8-1.1c0-0.6,0.4-1.1,0.9-1.1C224.6,39.4,225,39.9,225,40.5z M223.4,53
		v-9.7h1.4V53H223.4z"/>
	<path d="M227.1,46.4c0-1.2,0-2.2-0.1-3.2h1.2l0.1,1.7h0c0.6-1.2,1.5-1.9,2.7-1.9c1.8,0,3.2,2,3.2,4.9c0,3.5-1.7,5.2-3.5,5.2
		c-1,0-1.9-0.6-2.3-1.5h0V57h-1.4V46.4z M228.5,49c0,0.3,0,0.5,0.1,0.7c0.3,1.2,1.1,2.1,2.1,2.1c1.5,0,2.3-1.5,2.3-3.8
		c0-1.9-0.8-3.6-2.3-3.6c-0.9,0-1.8,0.9-2.1,2.2c0,0.2-0.1,0.5-0.1,0.7V49z"/>
	<path d="M235.9,51.2c0.4,0.3,1.1,0.7,1.8,0.7c1,0,1.5-0.6,1.5-1.4c0-0.8-0.4-1.3-1.4-1.8c-1.4-0.6-2-1.6-2-2.7c0-1.6,1-2.8,2.6-2.8
		c0.8,0,1.5,0.3,1.9,0.6l-0.3,1.3c-0.3-0.2-0.9-0.6-1.6-0.6c-0.8,0-1.3,0.6-1.3,1.3c0,0.8,0.5,1.2,1.5,1.6c1.3,0.6,2,1.5,2,2.9
		c0,1.7-1,2.9-2.9,2.9c-0.8,0-1.6-0.3-2.1-0.7L235.9,51.2z"/>
	<path d="M248.7,50.3c0,1,0,1.9,0.1,2.6h-1.2l-0.1-1.6h0c-0.4,0.8-1.2,1.8-2.5,1.8c-1.2,0-2.6-0.8-2.6-4.3v-5.7h1.4v5.4
		c0,1.8,0.4,3.1,1.7,3.1c0.9,0,1.6-0.8,1.8-1.6c0.1-0.3,0.1-0.6,0.1-0.9v-6h1.4V50.3z"/>
	<path d="M251,45.9c0-1,0-1.8-0.1-2.6h1.2l0.1,1.6h0c0.4-0.9,1.1-1.8,2.4-1.8c1,0,1.8,0.8,2.2,1.9h0c0.2-0.5,0.5-1,0.9-1.3
		c0.5-0.4,1-0.7,1.7-0.7c1,0,2.5,0.8,2.5,4.2V53h-1.4v-5.5c0-1.9-0.5-3-1.7-3c-0.8,0-1.4,0.7-1.6,1.6c-0.1,0.2-0.1,0.6-0.1,0.9v6
		h-1.4v-5.8c0-1.5-0.5-2.7-1.6-2.7c-0.9,0-1.5,0.9-1.7,1.8c-0.1,0.3-0.1,0.6-0.1,0.9V53H251V45.9z"/>
</g>
</svg>
